<?xml version="1.0" encoding="UTF-8"?>
<!DOCTYPE svg PUBLIC "-//W3C//DTD SVG 1.1//EN" "http://www.w3.org/Graphics/SVG/1.1/DTD/svg11.dtd">
<!-- Creator: CorelDRAW Home & Student X8 -->
<svg xmlns="http://www.w3.org/2000/svg" xml:space="preserve" width="1500px" height="1500px" version="1.1" style="shape-rendering:geometricPrecision; text-rendering:geometricPrecision; image-rendering:optimizeQuality; fill-rule:evenodd; clip-rule:evenodd"
viewBox="0 0 1500 1500"
 xmlns:xlink="http://www.w3.org/1999/xlink"
 xmlns:dc="http://purl.org/dc/elements/1.1/"
 xmlns:cc="http://creativecommons.org/ns#"
 xmlns:rdf="http://www.w3.org/1999/02/22-rdf-syntax-ns#"
 xmlns:svg="http://www.w3.org/2000/svg"
 xmlns:sodipodi="http://sodipodi.sourceforge.net/DTD/sodipodi-0.dtd"
 xmlns:inkscape="http://www.inkscape.org/namespaces/inkscape">
 <defs>
  <style type="text/css">
   <![CDATA[
    .fil0 {fill:black}
    .fil1 {fill:black;fill-rule:nonzero}
   ]]>
  </style>
 </defs>
 <g id="Layer_x0020_1">
  <metadata id="CorelCorpID_0Corel-Layer"/>
  <g id="_762912880">
   <path class="fil0" d="M595 0c-25,3 -45,24 -45,50l0 350 -100 0c-41,0 -65,47 -40,80l300 400c20,27 60,27 80,0l300 -400c25,-33 1,-81 -40,-80l-100 0 0 -350c0,-28 -22,-50 -50,-50l-300 0c-1,0 -3,0 -5,0zm-445 1000c-82,0 -150,68 -150,150l0 200c0,82 68,150 150,150l1200 0c82,0 150,-68 150,-150l0 -200c0,-82 -68,-150 -150,-150l-1200 0zm100 200c0,0 0,0 0,0 28,0 50,22 50,50 0,0 0,0 0,0 0,0 0,0 0,0 0,27 -22,50 -50,50 0,0 0,0 0,0 0,0 0,0 0,0 -27,0 -50,-23 -50,-50 0,0 0,0 0,0 0,0 0,0 0,0 0,-28 23,-50 50,-50 0,0 0,0 0,0l0 0zm200 0c0,0 0,0 0,0 28,0 50,22 50,50 0,0 0,0 0,0 0,0 0,0 0,0 0,27 -22,50 -50,50 0,0 0,0 0,0 0,0 0,0 0,0 -27,0 -50,-23 -50,-50 0,0 0,0 0,0 0,0 0,0 0,0 0,-28 23,-50 50,-50 0,0 0,0 0,0l0 0zm495 0c1,0 2,0 3,0 0,0 1,0 2,0l300 0c27,1 49,23 49,50 0,27 -22,49 -49,50l-300 0c0,0 -1,0 -1,0 -28,0 -50,-22 -50,-50 0,-26 20,-48 46,-50l0 0z"/>
  </g>
  <path class="fil1" d="M359 5846l143 36c-30,117 -84,206 -161,268 -78,61 -173,92 -285,92 -116,0 -210,-24 -283,-71 -73,-47 -128,-116 -166,-205 -38,-90 -57,-186 -57,-289 0,-112 22,-210 65,-294 42,-83 103,-147 183,-190 79,-44 166,-65 261,-65 107,0 198,27 271,82 74,55 125,132 154,231l-140 34c-25,-79 -61,-136 -109,-172 -47,-36 -107,-53 -179,-53 -83,0 -152,19 -207,59 -56,40 -95,93 -117,160 -23,67 -34,136 -34,207 0,92 13,172 40,240 26,69 68,119 124,153 56,34 117,51 182,51 80,0 148,-23 203,-69 55,-46 92,-114 112,-205z"/>
  <path id="1" class="fil1" d="M660 6224l0 -782 119 0 0 120c31,-55 59,-92 85,-110 26,-17 54,-26 85,-26 44,0 90,14 136,42l-47 122c-32,-18 -64,-27 -96,-27 -29,0 -55,9 -78,26 -23,17 -39,41 -49,72 -15,47 -22,99 -22,155l0 408 -133 0z"/>
  <path id="2" class="fil1" d="M1696 5971l137 18c-21,80 -61,142 -119,186 -58,43 -132,66 -223,66 -114,0 -204,-36 -271,-106 -67,-70 -100,-169 -100,-295 0,-131 33,-233 101,-305 67,-73 155,-109 263,-109 104,0 189,35 255,106 66,71 99,171 99,300 0,8 0,20 -1,35l-582 0c5,86 29,151 73,197 43,45 98,68 163,68 48,0 90,-13 124,-38 34,-26 61,-67 81,-123zm-433 -212l435 0c-6,-66 -23,-115 -50,-148 -42,-51 -97,-77 -164,-77 -60,0 -111,21 -153,61 -41,41 -64,95 -68,164z"/>
  <path id="3" class="fil1" d="M2511 6126c-49,42 -96,71 -142,89 -45,17 -94,26 -146,26 -86,0 -152,-21 -198,-63 -46,-42 -69,-95 -69,-160 0,-38 9,-73 26,-105 17,-32 40,-57 68,-76 29,-19 60,-33 96,-43 26,-7 65,-14 118,-20 107,-13 186,-28 236,-45 1,-19 1,-30 1,-35 0,-54 -13,-91 -38,-114 -34,-29 -84,-44 -151,-44 -62,0 -109,11 -138,33 -30,21 -52,60 -66,116l-130 -18c12,-56 31,-101 59,-135 27,-34 66,-60 117,-79 51,-18 110,-27 178,-27 66,0 121,8 163,23 42,16 72,36 92,60 20,24 33,54 41,90 5,23 7,63 7,122l0 175c0,123 3,201 8,234 5,32 16,64 33,94l-139 0c-13,-28 -22,-61 -26,-98zm-10 -294c-48,20 -121,37 -217,50 -55,8 -93,17 -116,26 -23,10 -40,25 -52,43 -12,19 -19,40 -19,63 0,35 14,64 40,87 27,24 66,36 118,36 51,0 96,-11 136,-34 40,-22 69,-52 88,-91 14,-29 21,-73 21,-131l1 -49z"/>
  <path id="4" class="fil1" d="M3126 6106l18 117c-37,7 -70,12 -99,12 -48,0 -86,-8 -112,-23 -27,-16 -45,-35 -56,-60 -11,-25 -16,-77 -16,-157l0 -450 -98 0 0 -103 98 0 0 -193 133 -79 0 272 132 0 0 103 -132 0 0 458c0,37 2,62 7,73 4,10 12,19 22,25 11,7 26,10 45,10 15,0 34,-2 58,-5z"/>
  <path id="5" class="fil1" d="M3790 5971l137 18c-21,80 -61,142 -120,186 -58,43 -132,66 -223,66 -114,0 -204,-36 -271,-106 -66,-70 -100,-169 -100,-295 0,-131 34,-233 101,-305 68,-73 155,-109 263,-109 104,0 189,35 255,106 66,71 99,171 99,300 0,8 0,20 0,35l-582 0c5,86 29,151 72,197 44,45 98,68 163,68 49,0 90,-13 124,-38 35,-26 62,-67 82,-123zm-434 -212l435 0c-5,-66 -22,-115 -50,-148 -41,-51 -96,-77 -163,-77 -61,0 -112,21 -153,61 -41,41 -64,95 -69,164z"/>
  <path id="6" class="fil1" d="M4599 6224l0 -99c-50,77 -122,116 -219,116 -62,0 -119,-18 -171,-52 -52,-34 -93,-82 -121,-143 -29,-62 -43,-132 -43,-212 0,-78 13,-148 39,-212 26,-63 65,-112 117,-145 51,-34 109,-51 173,-51 48,0 90,10 126,30 37,20 67,46 90,78l0 -388 132 0 0 1078 -123 0zm-419 -390c0,100 21,175 64,224 42,50 92,74 149,74 58,0 107,-23 148,-71 41,-47 61,-119 61,-216 0,-106 -21,-184 -62,-234 -41,-50 -92,-75 -153,-75 -59,0 -108,24 -148,72 -39,47 -59,123 -59,226z"/>
  <path id="7" class="fil1" d="M5472 6224l-123 0 0 -1078 132 0 0 384c56,-69 128,-104 214,-104 48,0 94,9 137,29 43,19 78,46 106,81 27,35 49,78 65,127 16,49 23,102 23,158 0,134 -33,237 -99,310 -66,73 -145,110 -238,110 -92,0 -164,-39 -217,-115l0 98zm-1 -397c0,94 13,161 38,203 42,68 98,102 169,102 58,0 108,-25 150,-75 42,-50 63,-125 63,-225 0,-101 -20,-177 -61,-225 -40,-48 -89,-73 -146,-73 -58,0 -108,25 -150,76 -42,50 -63,122 -63,217z"/>
  <path id="8" class="fil1" d="M6182 6524l-15 -122c29,8 54,12 76,12 29,0 53,-5 70,-15 18,-10 33,-24 44,-41 8,-14 22,-46 40,-99 3,-7 7,-18 12,-33l-296 -784 141 0 163 452c22,57 40,117 57,180 16,-59 34,-118 55,-176l166 -456 133 0 -296 796c-32,85 -57,144 -74,176 -24,44 -51,76 -81,96 -31,20 -67,30 -110,30 -25,0 -54,-5 -85,-16z"/>
  <path id="9" class="fil1" d="M7373 6224l0 -1078 214 0 255 763c23,71 40,124 51,160 12,-40 32,-97 58,-173l259 -750 191 0 0 1078 -137 0 0 -902 -315 902 -128 0 -311 -919 0 919 -137 0z"/>
  <path id="10" class="fil1" d="M9124 6126c-49,42 -97,71 -142,89 -45,17 -94,26 -146,26 -86,0 -152,-21 -198,-63 -46,-42 -70,-95 -70,-160 0,-38 9,-73 27,-105 17,-32 40,-57 68,-76 28,-19 60,-33 95,-43 27,-7 66,-14 118,-20 107,-13 186,-28 237,-45 0,-19 1,-30 1,-35 0,-54 -13,-91 -38,-114 -34,-29 -84,-44 -151,-44 -63,0 -109,11 -138,33 -30,21 -52,60 -66,116l-130 -18c12,-56 31,-101 58,-135 27,-34 66,-60 118,-79 51,-18 110,-27 177,-27 67,0 122,8 164,23 41,16 72,36 92,60 19,24 33,54 41,90 4,23 7,63 7,122l0 175c0,123 2,201 8,234 5,32 16,64 32,94l-138 0c-14,-28 -22,-61 -26,-98zm-10 -294c-49,20 -121,37 -217,50 -55,8 -94,17 -116,26 -23,10 -40,25 -52,43 -13,19 -19,40 -19,63 0,35 13,64 40,87 27,24 66,36 118,36 51,0 96,-11 136,-34 40,-22 69,-52 87,-91 15,-29 22,-73 22,-131l1 -49z"/>
  <path id="11" class="fil1" d="M9956 6224l0 -99c-50,77 -123,116 -219,116 -62,0 -119,-18 -171,-52 -52,-34 -93,-82 -122,-143 -28,-62 -43,-132 -43,-212 0,-78 13,-148 39,-212 26,-63 65,-112 117,-145 52,-34 110,-51 174,-51 47,0 89,10 126,30 37,20 66,46 90,78l0 -388 132 0 0 1078 -123 0zm-419 -390c0,100 21,175 63,224 43,50 93,74 150,74 58,0 107,-23 148,-71 40,-47 61,-119 61,-216 0,-106 -21,-184 -62,-234 -42,-50 -92,-75 -153,-75 -59,0 -108,24 -148,72 -39,47 -59,123 -59,226z"/>
  <path id="12" class="fil1" d="M10799 6126c-49,42 -96,71 -142,89 -45,17 -94,26 -146,26 -86,0 -152,-21 -198,-63 -46,-42 -70,-95 -70,-160 0,-38 9,-73 27,-105 17,-32 40,-57 68,-76 28,-19 60,-33 95,-43 27,-7 66,-14 118,-20 107,-13 186,-28 237,-45 0,-19 1,-30 1,-35 0,-54 -13,-91 -38,-114 -34,-29 -84,-44 -151,-44 -63,0 -109,11 -138,33 -30,21 -52,60 -66,116l-130 -18c12,-56 31,-101 58,-135 27,-34 67,-60 118,-79 51,-18 110,-27 177,-27 67,0 122,8 164,23 41,16 72,36 92,60 19,24 33,54 41,90 4,23 7,63 7,122l0 175c0,123 2,201 8,234 5,32 16,64 32,94l-138 0c-14,-28 -22,-61 -26,-98zm-10 -294c-49,20 -121,37 -217,50 -55,8 -94,17 -116,26 -23,10 -40,25 -52,43 -13,19 -19,40 -19,63 0,35 13,64 40,87 27,24 66,36 118,36 51,0 96,-11 136,-34 40,-22 69,-52 88,-91 14,-29 21,-73 21,-131l1 -49z"/>
  <path id="13" class="fil1" d="M12329 5846l143 36c-30,117 -83,206 -161,268 -77,61 -172,92 -285,92 -115,0 -210,-24 -283,-71 -72,-47 -128,-116 -166,-205 -37,-90 -57,-186 -57,-289 0,-112 22,-210 65,-294 43,-83 104,-147 183,-190 79,-44 166,-65 261,-65 108,0 198,27 272,82 73,55 124,132 153,231l-140 34c-25,-79 -61,-136 -109,-172 -47,-36 -107,-53 -179,-53 -82,0 -152,19 -207,59 -56,40 -95,93 -117,160 -23,67 -34,136 -34,207 0,92 13,172 40,240 27,69 68,119 124,153 56,34 117,51 183,51 79,0 147,-23 202,-69 55,-46 93,-114 112,-205z"/>
  <path id="14" class="fil1" d="M12631 6224l0 -782 119 0 0 120c30,-55 58,-92 84,-110 26,-17 54,-26 85,-26 45,0 90,14 136,42l-47 122c-32,-18 -64,-27 -96,-27 -29,0 -55,9 -78,26 -23,17 -39,41 -49,72 -15,47 -22,99 -22,155l0 408 -132 0z"/>
  <path id="15" class="fil1" d="M13667 5971l137 18c-22,80 -62,142 -120,186 -58,43 -132,66 -223,66 -114,0 -204,-36 -271,-106 -67,-70 -100,-169 -100,-295 0,-131 34,-233 101,-305 68,-73 155,-109 263,-109 104,0 189,35 255,106 66,71 99,171 99,300 0,8 0,20 -1,35l-582 0c5,86 30,151 73,197 44,45 98,68 163,68 49,0 90,-13 124,-38 34,-26 62,-67 82,-123zm-434 -212l435 0c-6,-66 -22,-115 -50,-148 -42,-51 -96,-77 -163,-77 -61,0 -112,21 -154,61 -41,41 -64,95 -68,164z"/>
  <path id="16" class="fil1" d="M14482 6126c-50,42 -97,71 -142,89 -46,17 -95,26 -147,26 -86,0 -152,-21 -198,-63 -46,-42 -69,-95 -69,-160 0,-38 9,-73 26,-105 18,-32 40,-57 69,-76 28,-19 60,-33 95,-43 26,-7 65,-14 118,-20 107,-13 186,-28 236,-45 1,-19 1,-30 1,-35 0,-54 -12,-91 -38,-114 -33,-29 -84,-44 -151,-44 -62,0 -108,11 -138,33 -30,21 -52,60 -66,116l-129 -18c11,-56 31,-101 58,-135 27,-34 66,-60 117,-79 51,-18 111,-27 178,-27 67,0 121,8 163,23 42,16 73,36 92,60 20,24 34,54 42,90 4,23 6,63 6,122l0 175c0,123 3,201 8,234 6,32 17,64 33,94l-139 0c-13,-28 -22,-61 -25,-98zm-11 -294c-48,20 -120,37 -217,50 -54,8 -93,17 -116,26 -22,10 -40,25 -52,43 -12,19 -19,40 -19,63 0,35 14,64 41,87 26,24 66,36 117,36 51,0 96,-11 136,-34 40,-22 69,-52 88,-91 14,-29 21,-73 21,-131l1 -49z"/>
  <path id="17" class="fil1" d="M15096 6106l18 117c-37,7 -70,12 -99,12 -48,0 -85,-8 -112,-23 -26,-16 -45,-35 -56,-60 -10,-25 -16,-77 -16,-157l0 -450 -98 0 0 -103 98 0 0 -193 133 -79 0 272 132 0 0 103 -132 0 0 458c0,37 2,62 7,73 4,10 12,19 22,25 11,7 26,10 46,10 14,0 33,-2 57,-5z"/>
  <path id="18" class="fil1" d="M15227 5296l0 -150 133 0 0 150 -133 0zm0 928l0 -782 133 0 0 782 -133 0z"/>
  <path id="19" class="fil1" d="M15775 6224l-295 -782 142 0 167 468c18,51 35,103 50,158 12,-41 29,-91 50,-149l174 -477 136 0 -296 782 -128 0z"/>
  <path id="20" class="fil1" d="M16848 5971l137 18c-22,80 -62,142 -120,186 -58,43 -132,66 -223,66 -114,0 -204,-36 -271,-106 -67,-70 -100,-169 -100,-295 0,-131 34,-233 101,-305 68,-73 155,-109 263,-109 104,0 189,35 255,106 66,71 99,171 99,300 0,8 0,20 -1,35l-582 0c5,86 30,151 73,197 44,45 98,68 163,68 49,0 90,-13 124,-38 34,-26 62,-67 82,-123zm-434 -212l435 0c-6,-66 -22,-115 -50,-148 -42,-51 -96,-77 -163,-77 -61,0 -112,21 -154,61 -41,41 -64,95 -68,164z"/>
  <path class="fil1" d="M-394 7730l0 -679 -117 0 0 -103 117 0 0 -83c0,-52 5,-91 14,-116 13,-34 35,-62 67,-84 32,-21 77,-31 134,-31 38,0 79,4 124,13l-20 116c-27,-5 -53,-7 -78,-7 -40,0 -68,8 -85,25 -17,17 -25,49 -25,96l0 71 152 0 0 103 -150 0 0 679 -133 0z"/>
  <path id="1" class="fil1" d="M-9 7730l0 -782 119 0 0 120c31,-55 59,-92 85,-110 25,-17 54,-26 85,-26 44,0 90,14 136,42l-47 122c-32,-18 -64,-27 -97,-27 -28,0 -54,9 -77,26 -23,17 -39,41 -49,72 -15,47 -22,99 -22,155l0 408 -133 0z"/>
  <path id="2" class="fil1" d="M445 7339c0,-144 40,-251 120,-321 67,-57 149,-86 246,-86 107,0 195,35 263,105 68,70 102,167 102,291 0,100 -15,179 -45,237 -30,57 -74,102 -132,134 -57,32 -120,47 -188,47 -109,0 -198,-34 -265,-104 -68,-70 -101,-171 -101,-303zm135 0c0,100 22,175 66,224 44,50 98,75 165,75 66,0 120,-25 164,-75 44,-50 66,-126 66,-228 0,-96 -22,-169 -66,-219 -44,-49 -99,-74 -164,-74 -67,0 -121,24 -165,74 -44,49 -66,124 -66,223z"/>
  <path id="3" class="fil1" d="M1332 7730l0 -782 119 0 0 111c24,-38 57,-69 97,-92 41,-24 87,-35 139,-35 58,0 105,12 142,36 37,24 63,57 78,100 63,-91 143,-136 242,-136 78,0 138,21 180,64 42,43 63,109 63,198l0 536 -133 0 0 -492c0,-53 -4,-91 -13,-114 -8,-24 -24,-42 -47,-56 -22,-15 -49,-22 -79,-22 -55,0 -101,19 -137,55 -37,37 -55,95 -55,175l0 454 -132 0 0 -507c0,-59 -11,-103 -33,-133 -21,-29 -57,-44 -106,-44 -37,0 -71,10 -103,30 -31,19 -54,48 -69,86 -14,37 -21,92 -21,163l0 405 -132 0z"/>
  <path id="4" class="fil1" d="M3292 7612l18 117c-37,7 -70,11 -99,11 -48,0 -85,-7 -112,-22 -26,-16 -45,-36 -56,-60 -11,-25 -16,-77 -16,-157l0 -450 -98 0 0 -103 98 0 0 -193 133 -80 0 273 132 0 0 103 -132 0 0 458c0,37 2,62 7,73 4,10 12,19 22,25 11,7 26,10 45,10 15,0 34,-2 58,-5z"/>
  <path id="5" class="fil1" d="M3423 7730l0 -1078 133 0 0 388c61,-72 139,-108 232,-108 58,0 108,11 151,34 42,23 72,54 91,94 18,40 27,99 27,175l0 495 -133 0 0 -494c0,-66 -14,-115 -42,-145 -29,-30 -69,-45 -121,-45 -39,0 -76,10 -110,31 -35,20 -59,47 -74,82 -14,35 -21,83 -21,144l0 427 -133 0z"/>
  <path id="6" class="fil1" d="M4794 7477l137 18c-22,80 -62,142 -120,185 -58,44 -132,66 -223,66 -114,0 -204,-35 -271,-105 -67,-70 -100,-169 -100,-295 0,-131 33,-233 101,-306 68,-72 155,-108 263,-108 104,0 189,35 255,106 66,71 99,171 99,300 0,8 0,19 -1,35l-582 0c5,86 29,151 73,197 44,45 98,68 163,68 48,0 90,-13 124,-38 34,-26 62,-67 82,-123zm-434 -212l435 0c-6,-66 -22,-115 -50,-148 -42,-51 -96,-77 -163,-77 -61,0 -112,20 -154,61 -41,41 -64,95 -68,164z"/>
  <polygon id="7" class="fil1" points="5532,7730 5532,6652 5678,6652 6244,7498 6244,6652 6381,6652 6381,7730 6234,7730 5669,6884 5669,7730 "/>
  <path id="8" class="fil1" d="M6554 7339c0,-144 40,-251 121,-321 67,-57 149,-86 246,-86 107,0 195,35 263,105 68,70 102,167 102,291 0,100 -15,179 -45,237 -30,57 -74,102 -132,134 -57,32 -120,47 -188,47 -110,0 -198,-34 -266,-104 -67,-70 -101,-171 -101,-303zm136 0c0,100 22,175 65,224 44,50 99,75 166,75 65,0 120,-25 164,-75 44,-50 66,-126 66,-228 0,-96 -22,-169 -66,-219 -44,-49 -99,-74 -164,-74 -67,0 -122,24 -166,74 -43,49 -65,124 -65,223z"/>
  <path id="9" class="fil1" d="M7952 7730l0 -116c-61,88 -143,132 -247,132 -46,0 -89,-8 -129,-26 -40,-18 -69,-40 -89,-66 -19,-27 -33,-60 -40,-99 -6,-26 -9,-67 -9,-123l0 -484 133 0 0 433c0,69 3,115 8,139 8,35 26,62 53,82 27,20 60,30 100,30 39,0 76,-10 111,-30 35,-21 59,-49 74,-83 14,-35 21,-86 21,-153l0 -418 133 0 0 782 -119 0z"/>
  <path id="10" class="fil1" d="M8279 7730l0 -782 119 0 0 111c57,-85 140,-127 248,-127 47,0 91,8 130,25 39,17 69,39 89,67 19,27 33,60 41,97 5,25 7,68 7,129l0 480 -133 0 0 -475c0,-54 -5,-94 -15,-121 -10,-27 -28,-48 -55,-64 -26,-16 -56,-24 -92,-24 -56,0 -104,18 -145,54 -41,36 -61,104 -61,203l0 427 -133 0z"/>
  <path id="11" class="fil1" d="M9552 7730l0 -1078 407 0c71,0 126,3 164,10 53,9 97,26 133,50 36,25 65,60 87,104 21,44 32,93 32,147 0,91 -29,169 -87,232 -59,64 -164,95 -317,95l-276 0 0 440 -143 0zm143 -566l278 0c93,0 158,-17 197,-52 38,-34 58,-82 58,-145 0,-45 -12,-83 -34,-116 -23,-32 -53,-53 -91,-63 -24,-7 -68,-10 -133,-10l-275 0 0 386z"/>
  <path id="12" class="fil1" d="M10538 7730l0 -782 119 0 0 120c30,-55 58,-92 84,-110 26,-17 54,-26 85,-26 45,0 90,14 137,42l-48 122c-32,-18 -64,-27 -96,-27 -29,0 -55,9 -78,26 -22,17 -39,41 -49,72 -14,47 -22,99 -22,155l0 408 -132 0z"/>
  <path id="13" class="fil1" d="M10991 7339c0,-144 40,-251 121,-321 67,-57 149,-86 246,-86 107,0 195,35 263,105 68,70 102,167 102,291 0,100 -15,179 -45,237 -30,57 -74,102 -132,134 -57,32 -120,47 -188,47 -110,0 -198,-34 -266,-104 -67,-70 -101,-171 -101,-303zm136 0c0,100 22,175 65,224 44,50 99,75 166,75 65,0 120,-25 164,-75 44,-50 66,-126 66,-228 0,-96 -23,-169 -67,-219 -43,-49 -98,-74 -163,-74 -67,0 -122,24 -166,74 -43,49 -65,124 -65,223z"/>
  <path id="14" class="fil1" d="M11878 6805l0 -153 132 0 0 153 -132 0zm-168 1227l24 -112c27,7 48,10 63,10 27,0 47,-9 61,-27 13,-18 20,-62 20,-134l0 -821 132 0 0 824c0,96 -12,163 -37,201 -32,49 -85,73 -159,73 -36,0 -71,-5 -104,-14z"/>
  <path id="15" class="fil1" d="M12746 7477l137 18c-21,80 -61,142 -119,185 -59,44 -133,66 -224,66 -113,0 -204,-35 -271,-105 -66,-70 -100,-169 -100,-295 0,-131 34,-233 101,-306 68,-72 156,-108 263,-108 104,0 189,35 255,106 66,71 100,171 100,300 0,8 -1,19 -1,35l-582 0c5,86 29,151 73,197 43,45 97,68 162,68 49,0 90,-13 124,-38 35,-26 62,-67 82,-123zm-434 -212l436 0c-6,-66 -23,-115 -50,-148 -42,-51 -97,-77 -164,-77 -61,0 -112,20 -153,61 -41,41 -64,95 -69,164z"/>
  <path id="16" class="fil1" d="M13561 7444l130 18c-15,89 -51,158 -109,209 -59,50 -131,75 -216,75 -107,0 -193,-34 -257,-104 -65,-70 -98,-170 -98,-300 0,-84 14,-158 42,-221 28,-63 71,-110 128,-142 57,-31 119,-47 186,-47 85,0 154,21 208,64 54,43 88,104 103,183l-128 19c-12,-52 -33,-92 -65,-118 -31,-27 -69,-40 -113,-40 -67,0 -121,24 -163,72 -41,48 -62,123 -62,226 0,105 20,181 60,229 41,47 93,71 157,71 53,0 96,-16 131,-48 35,-31 57,-80 66,-146z"/>
  <path id="17" class="fil1" d="M14091 7612l18 117c-37,7 -70,11 -99,11 -48,0 -86,-7 -112,-22 -27,-16 -45,-36 -56,-60 -11,-25 -16,-77 -16,-157l0 -450 -98 0 0 -103 98 0 0 -193 133 -80 0 273 132 0 0 103 -132 0 0 458c0,37 2,62 7,73 4,10 12,19 22,25 11,7 26,10 45,10 15,0 34,-2 58,-5z"/>
 </g>
</svg>
