<?xml version="1.0" encoding="UTF-8"?>
<!DOCTYPE svg PUBLIC "-//W3C//DTD SVG 1.1//EN" "http://www.w3.org/Graphics/SVG/1.1/DTD/svg11.dtd">
<!-- Creator: CorelDRAW Home & Student X8 -->
<svg xmlns="http://www.w3.org/2000/svg" xml:space="preserve" width="1500px" height="1116px" version="1.1" style="shape-rendering:geometricPrecision; text-rendering:geometricPrecision; image-rendering:optimizeQuality; fill-rule:evenodd; clip-rule:evenodd"
viewBox="0 0 1500 1116"
 xmlns:xlink="http://www.w3.org/1999/xlink">
 <defs>
  <style type="text/css">
   <![CDATA[
    .fil0 {fill:black}
   ]]>
  </style>
 </defs>
 <g id="Layer_x0020_1">
  <metadata id="CorelCorpID_0Corel-Layer"/>
  <g id="_761810192">
   <path class="fil0" d="M1473 395l-191 0c-69,-228 -282,-395 -532,-395 -194,0 -366,99 -465,252 -8,11 -7,25 3,35l58 55c12,12 32,9 41,-7 74,-122 209,-203 363,-203 178,0 328,107 393,263l-186 0c-24,0 -37,27 -21,44l258 265c11,11 29,11 40,0l66 -67 0 0 191 -198c19,-17 6,-44 -18,-44z"/>
   <path class="fil0" d="M1155 775c-12,-13 -33,-10 -41,4 -76,124 -210,206 -364,206 -180,0 -332,-111 -395,-266l188 0c24,0 37,-28 21,-45l-260 -267c-11,-11 -29,-11 -40,0l-257 265c-16,18 -3,45 21,45l188 0c67,231 280,399 534,399 195,0 365,-99 466,-252 7,-11 7,-25 -3,-33l-58 -56z"/>
  </g>
 </g>
</svg>
