<?xml version="1.0" encoding="UTF-8"?>
<!DOCTYPE svg PUBLIC "-//W3C//DTD SVG 1.1//EN" "http://www.w3.org/Graphics/SVG/1.1/DTD/svg11.dtd">
<!-- Creator: CorelDRAW Home & Student X8 -->
<svg xmlns="http://www.w3.org/2000/svg" xml:space="preserve" width="698px" height="464px" version="1.1" style="shape-rendering:geometricPrecision; text-rendering:geometricPrecision; image-rendering:optimizeQuality; fill-rule:evenodd; clip-rule:evenodd"
viewBox="0 0 698 464"
 xmlns:xlink="http://www.w3.org/1999/xlink">
 <defs>
  <style type="text/css">
   <![CDATA[
    .fil0 {fill:black}
   ]]>
  </style>
 </defs>
 <g id="Layer_x0020_1">
  <metadata id="CorelCorpID_0Corel-Layer"/>
  <g id="_757349040">
   <path class="fil0" d="M478 47l-4 -7c-2,-4 -1,-9 3,-11l46 -28c4,-2 9,-1 11,3l5 7c1,2 3,3 5,1l12 -6c7,-5 17,-3 22,4 29,43 53,82 70,119 19,38 35,92 49,162 2,7 1,14 -1,20l-19 66 -119 -198 -32 19 -77 -128 28 -17c2,-1 3,-4 1,-6l0 0zm11 139l-230 139 11 18 -188 113c-26,15 -59,7 -74,-18 -16,-26 -7,-59 18,-74l188 -113 11 17 191 -115 -13 -22 39 -23 47 78zm-109 -45l2 3 -149 90 -2 -3c-7,-12 -3,-27 8,-35l30 -17c1,-1 2,-3 2,-4l-2 -15c0,-3 2,-7 4,-8l25 -15c3,-2 7,-2 9,0l11 9c2,1 3,1 5,0l23 -14c12,-7 27,-3 34,9zm97 81l122 202 -78 -8c-6,-1 -12,-4 -16,-9l-84 -104c-3,-3 -7,-4 -11,-2l-40 25c-2,1 -4,3 -5,4l-13 24c-1,2 -2,3 -3,4l-17 13c-6,4 -13,3 -18,-2 0,-1 0,-1 0,-1l-21 -35 184 -111z"/>
  </g>
 </g>
</svg>
